<svg xmlns:svg="http://www.w3.org/2000/svg" xmlns="http://www.w3.org/2000/svg" viewBox="0" width="160" height="185"><g transform="translate(-170 -89)" fill="none" fill-rule="evenodd"><svg width="175" height="175" x="163" y="94" fill="#303841"><path fill="#303841" d="M87 0l75 43.75v87.5L87 175l-75-43.75v-87.5z"/></svg><path d="M178.443 329.438l134.543-247.05.575-1.056-2.086-1.164-.574 1.056-134.544 247.05-.575 1.056 2.086 1.164zm71.439 0l134.543-247.05.575-1.056-2.085-1.164-.575 1.056-134.544 247.05-.575 1.056 2.086 1.164zm-115.46 32.473l130.971-279.59.51-1.088-2.151-1.033-.51 1.089-130.972 279.59-.51 1.088 2.151 1.033.51-1.089zm192.725-30.21L117.593 76.215l-.76-.927-1.833 1.54.76.927 209.555 255.487.76.927 1.833-1.54-.76-.927zm42.926-36.07L170.043 3.99l-.679-.99-1.956 1.374.68.99 200.029 291.641.679.99 1.956-1.374-.68-.99z" fill="#fff"/></g></svg>